<svg width="200" height="52" viewBox="0 0 200 52" fill="none" xmlns="http://www.w3.org/2000/svg">
<g clip-path="url(#clip0_1_110)">
<path fill-rule="evenodd" clip-rule="evenodd" d="M25.8064 0C11.5539 0 0 11.5539 0 25.8065C0 33.4413 3.31542 40.3016 8.58506 45.0265L3.77034 48.7203C2.54761 49.6584 3.21098 51.6129 4.7521 51.6129H24.2566C24.3702 51.6129 24.4782 51.6031 24.5808 51.5844C24.9869 51.6032 25.3956 51.6129 25.8064 51.6129C40.059 51.6129 51.6129 40.059 51.6129 25.8065C51.6129 11.5539 40.059 0 25.8064 0Z" fill="#D2D5F9"/>
<path d="M14.5161 29.0323C16.2977 29.0323 17.7419 27.5881 17.7419 25.8065C17.7419 24.0249 16.2977 22.5807 14.5161 22.5807C12.7345 22.5807 11.2903 24.0249 11.2903 25.8065C11.2903 27.5881 12.7345 29.0323 14.5161 29.0323Z" fill="#002DE3"/>
<path d="M25.8065 29.0323C27.5881 29.0323 29.0323 27.5881 29.0323 25.8065C29.0323 24.0249 27.5881 22.5807 25.8065 22.5807C24.0249 22.5807 22.5807 24.0249 22.5807 25.8065C22.5807 27.5881 24.0249 29.0323 25.8065 29.0323Z" fill="#002DE3"/>
<path d="M37.0968 29.0323C38.8783 29.0323 40.3226 27.5881 40.3226 25.8065C40.3226 24.0249 38.8783 22.5807 37.0968 22.5807C35.3152 22.5807 33.871 24.0249 33.871 25.8065C33.871 27.5881 35.3152 29.0323 37.0968 29.0323Z" fill="#002DE3"/>
<path d="M80.1936 40.671C77.4065 40.671 74.9678 40.0903 72.8775 38.929C70.8129 37.7419 69.2258 36.0903 68.1162 33.9742C67.0065 31.8323 66.4517 29.3419 66.4517 26.5032C66.4517 23.6903 67.0065 21.2258 68.1162 19.1097C69.2258 16.9678 70.8129 15.3161 72.8775 14.1549C74.9678 12.9936 77.4065 12.4129 80.1936 12.4129C82.0259 12.4129 83.7678 12.6968 85.4194 13.2645C87.0968 13.8065 88.4646 14.5807 89.5226 15.5871L87.6258 19.9226C86.3871 18.9936 85.1742 18.3226 83.9871 17.9097C82.8258 17.471 81.6 17.2516 80.3097 17.2516C77.8323 17.2516 75.9355 18.0387 74.6194 19.6129C73.3033 21.1871 72.6452 23.4839 72.6452 26.5032C72.6452 29.5484 73.3033 31.871 74.6194 33.471C75.9355 35.0452 77.8323 35.8323 80.3097 35.8323C81.6 35.8323 82.8258 35.6258 83.9871 35.2129C85.1742 34.7742 86.3871 34.0903 87.6258 33.1613L89.5226 37.4968C88.4646 38.5032 87.0968 39.2903 85.4194 39.8581C83.7678 40.4 82.0259 40.671 80.1936 40.671ZM105.493 20.1936C110.138 20.1936 112.461 22.942 112.461 28.4387V40.3226H106.616V28.7097C106.616 27.3419 106.358 26.3484 105.841 25.729C105.351 25.0839 104.564 24.7613 103.48 24.7613C102.19 24.7613 101.158 25.1742 100.383 26C99.6092 26.8258 99.2221 27.9355 99.2221 29.329V40.3226H93.377V11.8323H99.2221V23.3678C99.9189 22.3355 100.809 21.5484 101.893 21.0065C102.977 20.4645 104.177 20.1936 105.493 20.1936ZM136.781 20.6968V40.3226H131.014V37.4194C130.42 38.4258 129.581 39.2129 128.497 39.7807C127.414 40.3484 126.188 40.6323 124.82 40.6323C123.117 40.6323 121.607 40.2194 120.291 39.3936C119.001 38.5678 117.981 37.3936 117.233 35.871C116.51 34.3226 116.149 32.542 116.149 30.529C116.149 28.5161 116.51 26.7226 117.233 25.1484C117.981 23.5742 119.014 22.3613 120.33 21.5097C121.646 20.6323 123.143 20.1936 124.82 20.1936C126.188 20.1936 127.414 20.4903 128.497 21.0839C129.581 21.6774 130.42 22.4774 131.014 23.4839V20.6968H136.781ZM126.523 36.1807C127.968 36.1807 129.078 35.6903 129.852 34.7097C130.626 33.729 131.014 32.3097 131.014 30.4516C131.014 28.5936 130.626 27.1742 129.852 26.1936C129.078 25.1871 127.968 24.6839 126.523 24.6839C125.078 24.6839 123.956 25.2 123.156 26.2323C122.356 27.2645 121.956 28.6968 121.956 30.529C121.956 32.3613 122.343 33.7678 123.117 34.7484C123.917 35.7032 125.052 36.1807 126.523 36.1807ZM148.854 25.071V32.6968C148.854 33.7807 149.138 34.5807 149.706 35.0968C150.274 35.5871 151.009 35.8323 151.912 35.8323C152.48 35.8323 153.125 35.742 153.848 35.5613V40.0903C152.919 40.4516 151.796 40.6323 150.48 40.6323C148.054 40.6323 146.196 39.9484 144.906 38.5807C143.641 37.2129 143.009 35.2903 143.009 32.8129V25.071H139.293V20.6968H143.009V16.0903L148.854 14.1936V20.6968H153.848V25.071H148.854ZM174.46 30.9936H161.531C161.634 32.8258 162.111 34.1678 162.963 35.0194C163.815 35.8452 165.079 36.2581 166.756 36.2581C167.763 36.2581 168.769 36.0903 169.776 35.7549C170.782 35.4194 171.711 34.929 172.563 34.2839L174.111 38.2323C173.182 38.9807 172.021 39.5742 170.627 40.0129C169.26 40.4258 167.879 40.6323 166.486 40.6323C163.182 40.6323 160.589 39.729 158.705 37.9226C156.821 36.0903 155.88 33.6 155.88 30.4516C155.88 28.4645 156.28 26.6968 157.08 25.1484C157.905 23.5742 159.054 22.3613 160.525 21.5097C161.995 20.6323 163.66 20.1936 165.518 20.1936C168.279 20.1936 170.46 21.0968 172.06 22.9032C173.66 24.6839 174.46 27.0968 174.46 30.142V30.9936ZM165.673 24.2968C164.563 24.2968 163.66 24.6194 162.963 25.2645C162.292 25.9097 161.853 26.8516 161.647 28.0903H169.427C169.118 25.5613 167.866 24.2968 165.673 24.2968ZM187.498 40.6323C185.408 40.6323 183.576 40.2194 182.002 39.3936C180.453 38.5678 179.253 37.3807 178.402 35.8323C177.576 34.2839 177.163 32.4774 177.163 30.4129C177.163 28.3484 177.576 26.542 178.402 24.9936C179.253 23.4452 180.453 22.2581 182.002 21.4323C183.576 20.6065 185.408 20.1936 187.498 20.1936C189.563 20.1936 191.369 20.6065 192.918 21.4323C194.466 22.2581 195.653 23.4452 196.479 24.9936C197.331 26.542 197.756 28.3484 197.756 30.4129C197.756 32.4774 197.331 34.2839 196.479 35.8323C195.653 37.3807 194.466 38.5678 192.918 39.3936C191.369 40.2194 189.563 40.6323 187.498 40.6323ZM187.498 36.1807C188.944 36.1807 190.04 35.7032 190.789 34.7484C191.563 33.7936 191.95 32.3484 191.95 30.4129C191.95 28.5032 191.563 27.071 190.789 26.1161C190.04 25.1355 188.944 24.6452 187.498 24.6452C186.027 24.6452 184.905 25.1355 184.131 26.1161C183.356 27.071 182.969 28.5032 182.969 30.4129C182.969 34.2581 184.479 36.1807 187.498 36.1807Z" fill="#0F1828"/>
</g>
<defs>
<clipPath id="clip0_1_110">
<rect width="200" height="51.6129" fill="white"/>
</clipPath>
</defs>
</svg>
