<svg width="240" height="200" viewBox="0 0 240 200" fill="none" xmlns="http://www.w3.org/2000/svg">
<path d="M112.353 200C164.526 200 206.82 197.837 206.82 195.169C206.82 192.501 164.526 190.338 112.353 190.338C60.1799 190.338 17.8854 192.501 17.8854 195.169C17.8854 197.837 60.1799 200 112.353 200Z" fill="#F2F2F2"/>
<path d="M167.545 46.4167H166.472V17.0162C166.472 12.5032 164.679 8.1751 161.488 4.98394C158.297 1.79278 153.969 4.98266e-06 149.456 0H87.1704C82.6576 -8.54164e-06 78.3297 1.79275 75.1387 4.9839C71.9477 8.17505 70.155 12.5032 70.1549 17.0162V178.309C70.1549 182.822 71.9476 187.151 75.1386 190.342C78.3296 193.533 82.6575 195.326 87.1703 195.326H149.456C153.969 195.326 158.297 193.533 161.488 190.342C164.679 187.151 166.472 182.823 166.472 178.31V67.3444H167.545L167.545 46.4167Z" fill="#3F3D56"/>
<path d="M162.85 17.1349V178.191C162.85 181.561 161.511 184.794 159.128 187.177C156.745 189.56 153.513 190.899 150.143 190.899H87.5578C84.1876 190.899 80.9554 189.56 78.5723 187.177C76.1892 184.794 74.8504 181.561 74.8503 178.191V17.1349C74.8504 13.7646 76.1892 10.5322 78.5723 8.14903C80.9554 5.76582 84.1876 4.42691 87.5578 4.42685H95.1501C94.777 5.34365 94.6349 6.33808 94.7364 7.32268C94.8378 8.30727 95.1796 9.25186 95.7317 10.0733C96.2839 10.8948 97.0294 11.568 97.9028 12.0337C98.7761 12.4995 99.7506 12.7434 100.74 12.7441H136.423C137.413 12.7434 138.387 12.4995 139.261 12.0337C140.134 11.568 140.88 10.8948 141.432 10.0733C141.984 9.25185 142.326 8.30727 142.427 7.32267C142.529 6.33808 142.387 5.34365 142.013 4.42685H150.143C153.513 4.42691 156.745 5.76582 159.128 8.14903C161.511 10.5322 162.85 13.7646 162.85 17.1349Z" fill="white"/>
<path d="M142.688 86.5816C142.272 86.7989 141.849 87.0047 141.419 87.1988C141.027 87.376 140.629 87.5424 140.225 87.698C140.077 87.7544 139.927 87.8108 139.776 87.8671C138.588 88.2981 137.368 88.6346 136.126 88.8736C135.512 88.9943 134.889 89.0892 134.259 89.1581C133.738 89.2171 133.212 89.2592 132.681 89.2842C132.302 89.303 131.924 89.311 131.543 89.311C130.033 89.3117 128.528 89.1706 127.045 88.8897C126.658 88.8199 126.28 88.7367 125.901 88.6454C124.071 88.2068 122.299 87.5527 120.622 86.697C120.472 86.6218 120.322 86.5413 120.172 86.4635C119.949 86.3454 119.732 86.2219 119.514 86.0931C119.619 85.9482 119.732 85.8059 119.847 85.6664C121.103 84.11 122.672 82.8358 124.454 81.9267C126.235 81.0176 128.187 80.4941 130.185 80.3903C132.182 80.2865 134.178 80.6047 136.044 81.3241C137.91 82.0436 139.603 83.1482 141.014 84.566C141.503 85.0572 141.957 85.5828 142.371 86.1387C142.481 86.2836 142.586 86.4313 142.688 86.5816Z" fill="#FFA934"/>
<path d="M132.078 74.7921C138.586 74.7921 143.862 69.5159 143.862 63.0073C143.862 56.4988 138.586 51.2225 132.078 51.2225C125.57 51.2225 120.294 56.4988 120.294 63.0073C120.294 69.5159 125.57 74.7921 132.078 74.7921Z" fill="#2F2E41"/>
<path d="M135.212 74.8087C139.463 72.4852 141.025 67.1559 138.701 62.9054C136.378 58.6548 131.049 57.0927 126.799 59.4163C122.548 61.7398 120.986 67.0691 123.31 71.3196C125.633 75.5702 130.962 77.1323 135.212 74.8087Z" fill="#A0616A"/>
<path d="M140.221 61.5955C138.217 62.9769 135.838 63.7121 133.404 63.7024C134.273 64.3045 135.261 64.7112 136.302 64.8945C133.065 65.5887 129.72 65.6075 126.476 64.9497C125.755 64.834 125.06 64.5951 124.42 64.2432C124.101 64.0651 123.823 63.8219 123.604 63.5293C123.385 63.2368 123.231 62.9015 123.15 62.5452C122.935 61.3137 123.894 60.1949 124.891 59.4408C126.418 58.3039 128.179 57.5206 130.045 57.1476C131.912 56.7746 133.838 56.8212 135.684 57.284C136.89 57.5956 138.098 58.1222 138.881 59.0905C139.664 60.0587 139.896 61.5515 139.15 62.5486L140.221 61.5955Z" fill="#2F2E41"/>
<path d="M131.543 41.0015C126.275 41.0007 121.152 42.7223 116.953 45.9039C112.755 49.0855 109.712 53.5526 108.288 58.6243C106.864 63.6961 107.137 69.0943 109.066 73.9963C110.995 78.8983 114.474 83.0351 118.972 85.7764L119.128 85.8676C119.257 85.9455 119.385 86.0206 119.514 86.0931C119.732 86.2219 119.949 86.3454 120.172 86.4635C120.322 86.5413 120.472 86.6218 120.622 86.697C122.299 87.5527 124.071 88.2068 125.901 88.6454C126.28 88.7367 126.658 88.8199 127.045 88.8897C128.528 89.1706 130.033 89.3117 131.543 89.311C131.924 89.311 132.302 89.303 132.681 89.2842C133.212 89.2592 133.738 89.2171 134.259 89.1581C134.889 89.0892 135.512 88.9943 136.126 88.8736C137.368 88.6346 138.588 88.2981 139.776 87.8671C139.927 87.8108 140.077 87.7544 140.225 87.698C140.629 87.5424 141.027 87.376 141.419 87.1988C141.848 87.0056 142.271 86.7998 142.688 86.5816C146.866 84.3935 150.319 81.0399 152.629 76.9277C152.639 76.9062 152.653 76.8847 152.664 76.8633C153.896 74.6521 154.77 72.2598 155.253 69.7752C155.932 66.2774 155.83 62.6728 154.952 59.2194C154.075 55.7661 152.445 52.5494 150.179 49.7997C147.913 47.05 145.068 44.8354 141.846 43.3143C138.624 41.7933 135.106 41.0035 131.543 41.0015ZM152.224 76.5493C152.202 76.5868 152.183 76.6244 152.162 76.6593C149.898 80.7108 146.494 84.0073 142.371 86.1387C141.961 86.3534 141.543 86.5547 141.118 86.7426C140.767 86.9009 140.407 87.0512 140.045 87.1908C139.892 87.2498 139.736 87.3089 139.58 87.3625C138.554 87.7375 137.502 88.0389 136.432 88.2643C135.639 88.4332 134.837 88.5596 134.03 88.6427C133.534 88.6964 133.029 88.734 132.522 88.7528C132.197 88.7662 131.87 88.7743 131.543 88.7743C130.082 88.776 128.625 88.6403 127.19 88.369C126.317 88.208 125.454 87.9965 124.605 87.7356C123.313 87.3362 122.057 86.8271 120.851 86.2138C120.711 86.1414 120.572 86.0689 120.435 85.9938C120.239 85.8891 120.04 85.7818 119.847 85.6664C119.702 85.5858 119.557 85.4999 119.415 85.4141C119.332 85.3657 119.248 85.3148 119.165 85.2638C115.221 82.8417 112.075 79.3149 110.118 75.121C108.16 70.9271 107.476 66.2507 108.152 61.6719C108.827 57.0931 110.832 52.8134 113.918 49.3637C117.004 45.9141 121.034 43.4463 125.509 42.2666C129.985 41.0868 134.708 41.247 139.093 42.7273C143.478 44.2076 147.332 46.9428 150.177 50.5936C153.022 54.2444 154.732 58.6502 155.096 63.2642C155.46 67.8783 154.461 72.4977 152.224 76.5493Z" fill="#3F3D56"/>
<path d="M126.111 51.3852C125.984 50.0518 124.35 49.231 123.073 49.6337C121.796 50.0365 120.957 51.3227 120.704 52.6378C120.582 53.1917 120.57 53.7642 120.67 54.3225C120.77 54.8808 120.979 55.4139 121.285 55.8913C121.931 56.8205 123.117 57.4004 124.224 57.1645C125.487 56.8952 126.362 55.6617 126.612 54.3945C126.863 53.1273 126.614 51.8209 126.366 50.5533L126.111 51.3852Z" fill="#2F2E41"/>
<path d="M144.087 53.2899C143.96 51.9566 142.327 51.1357 141.049 51.5385C139.772 51.9412 138.934 53.2274 138.68 54.5426C138.558 55.0964 138.547 55.6689 138.646 56.2272C138.746 56.7855 138.955 57.3186 139.261 57.796C139.907 58.7253 141.093 59.3052 142.2 59.0693C143.463 58.8 144.338 57.5664 144.589 56.2992C144.839 55.0321 144.591 53.7256 144.342 52.458L144.087 53.2899Z" fill="#2F2E41"/>
<path d="M89.7935 74.8097C89.6263 74.8095 89.4611 74.7745 89.3083 74.7068C89.1555 74.6392 89.0185 74.5403 88.906 74.4167L75.5888 59.8881C75.4377 59.7236 75.2541 59.5922 75.0496 59.5022C74.8452 59.4123 74.6243 59.3657 74.4009 59.3654H4.02809C2.96014 59.3642 1.93628 58.9394 1.18112 58.1842C0.42597 57.4291 0.00119904 56.4051 0 55.3371V29.9579C0.00119832 28.8899 0.42597 27.866 1.18112 27.1108C1.93628 26.3556 2.96014 25.9308 4.02809 25.9296H95.2014C96.2693 25.9308 97.2932 26.3556 98.0483 27.1108C98.8035 27.866 99.2282 28.8899 99.2294 29.9579V55.3372C99.2282 56.4051 98.8035 57.4291 98.0483 58.1843C97.2932 58.9394 96.2693 59.3642 95.2014 59.3654H92.6166C92.1893 59.3659 91.7797 59.5359 91.4776 59.838C91.1755 60.1402 91.0055 60.5498 91.0051 60.9771V73.6001C91.0061 73.8438 90.933 74.0821 90.7954 74.2832C90.6578 74.4844 90.4623 74.6389 90.2348 74.7262C90.0942 74.7813 89.9445 74.8096 89.7935 74.8097Z" fill="white"/>
<path d="M89.7935 74.8097C89.6263 74.8095 89.4611 74.7745 89.3083 74.7068C89.1555 74.6392 89.0185 74.5403 88.906 74.4167L75.5888 59.8881C75.4377 59.7236 75.2541 59.5922 75.0496 59.5022C74.8452 59.4123 74.6243 59.3657 74.4009 59.3654H4.02809C2.96014 59.3642 1.93628 58.9394 1.18112 58.1842C0.42597 57.4291 0.00119904 56.4051 0 55.3371V29.9579C0.00119832 28.8899 0.42597 27.866 1.18112 27.1108C1.93628 26.3556 2.96014 25.9308 4.02809 25.9296H95.2014C96.2693 25.9308 97.2932 26.3556 98.0483 27.1108C98.8035 27.866 99.2282 28.8899 99.2294 29.9579V55.3372C99.2282 56.4051 98.8035 57.4291 98.0483 58.1843C97.2932 58.9394 96.2693 59.3642 95.2014 59.3654H92.6166C92.1893 59.3659 91.7797 59.5359 91.4776 59.838C91.1755 60.1402 91.0055 60.5498 91.0051 60.9771V73.6001C91.0061 73.8438 90.933 74.0821 90.7954 74.2832C90.6578 74.4844 90.4623 74.6389 90.2348 74.7262C90.0942 74.7813 89.9445 74.8096 89.7935 74.8097ZM4.02809 26.4664C3.10245 26.4674 2.21502 26.8356 1.56049 27.4902C0.905962 28.1447 0.537792 29.0322 0.536747 29.9579V55.3372C0.537793 56.2628 0.905967 57.1503 1.56049 57.8049C2.21502 58.4594 3.10245 58.8276 4.02809 58.8287H74.4009C74.6987 58.829 74.9931 58.8911 75.2657 59.011C75.5382 59.1309 75.783 59.306 75.9844 59.5253L89.3017 74.054C89.3931 74.1537 89.5125 74.2235 89.6443 74.2542C89.7761 74.2849 89.9141 74.2751 90.0402 74.226C90.1663 74.177 90.2746 74.091 90.351 73.9793C90.4274 73.8676 90.4683 73.7355 90.4683 73.6001V60.9771C90.4689 60.4075 90.6955 59.8614 91.0982 59.4586C91.5009 59.0559 92.047 58.8293 92.6166 58.8287H95.2014C96.127 58.8276 97.0144 58.4594 97.6689 57.8049C98.3235 57.1503 98.6916 56.2628 98.6927 55.3372V29.9579C98.6916 29.0322 98.3235 28.1447 97.669 27.4902C97.0144 26.8356 96.127 26.4674 95.2014 26.4664H4.02809Z" fill="#3F3D56"/>
<path d="M9.88045 37.1251C11.8271 37.1251 13.4052 35.547 13.4052 33.6002C13.4052 31.6535 11.8271 30.0753 9.88045 30.0753C7.93379 30.0753 6.35571 31.6535 6.35571 33.6002C6.35571 35.547 7.93379 37.1251 9.88045 37.1251Z" fill="#FFA934"/>
<path d="M91.0892 53.1047H8.14029C7.89324 53.105 7.64855 53.0566 7.42022 52.9623C7.19188 52.8679 6.98438 52.7295 6.80958 52.5549C6.63478 52.3803 6.49611 52.1729 6.4015 51.9447C6.30688 51.7165 6.25819 51.4718 6.25819 51.2248C6.25819 50.9777 6.30688 50.7331 6.4015 50.5048C6.49611 50.2766 6.63478 50.0692 6.80958 49.8946C6.98438 49.7201 7.19188 49.5816 7.42022 49.4873C7.64855 49.3929 7.89324 49.3445 8.14029 49.3448H91.0892C91.5874 49.3454 92.0649 49.5437 92.417 49.8962C92.769 50.2487 92.9668 50.7266 92.9668 51.2248C92.9668 51.723 92.769 52.2008 92.417 52.5533C92.0649 52.9058 91.5874 53.1041 91.0892 53.1047Z" fill="#E6E6E6"/>
<path d="M64.0662 45.1149H8.14029C7.89324 45.1152 7.64855 45.0668 7.42022 44.9725C7.19188 44.8781 6.98438 44.7397 6.80958 44.5651C6.63478 44.3905 6.49611 44.1831 6.4015 43.9549C6.30688 43.7267 6.25819 43.482 6.25819 43.235C6.25819 42.9879 6.30688 42.7433 6.4015 42.515C6.49611 42.2868 6.63478 42.0794 6.80958 41.9048C6.98438 41.7302 7.19188 41.5918 7.42022 41.4975C7.64855 41.4031 7.89324 41.3547 8.14029 41.355H64.0662C64.5647 41.355 65.0429 41.5531 65.3954 41.9056C65.748 42.2582 65.946 42.7364 65.946 43.235C65.946 43.7336 65.748 44.2117 65.3954 44.5643C65.0429 44.9169 64.5647 45.1149 64.0662 45.1149Z" fill="#E6E6E6"/>
<path d="M148.965 160.878C148.738 160.791 148.542 160.636 148.405 160.435C148.267 160.234 148.194 159.996 148.195 159.752V147.129C148.194 146.702 148.025 146.292 147.722 145.99C147.42 145.688 147.011 145.518 146.583 145.517H143.999C142.931 145.516 141.907 145.091 141.152 144.336C140.396 143.581 139.972 142.557 139.971 141.489V116.11C139.972 115.042 140.396 114.018 141.152 113.263C141.907 112.508 142.931 112.083 143.999 112.082H235.172C236.24 112.083 237.264 112.508 238.019 113.263C238.774 114.018 239.199 115.042 239.2 116.11V141.489C239.199 142.557 238.774 143.581 238.019 144.336C237.264 145.091 236.24 145.516 235.172 145.517H164.799C164.576 145.518 164.355 145.564 164.15 145.654C163.946 145.744 163.762 145.876 163.611 146.04L150.294 160.569C150.181 160.692 150.044 160.791 149.892 160.859C149.739 160.927 149.574 160.962 149.407 160.962C149.255 160.962 149.106 160.933 148.965 160.878Z" fill="white"/>
<path d="M148.965 160.878C148.738 160.791 148.542 160.636 148.405 160.435C148.267 160.234 148.194 159.996 148.195 159.752V147.129C148.194 146.702 148.025 146.292 147.722 145.99C147.42 145.688 147.011 145.518 146.583 145.517H143.999C142.931 145.516 141.907 145.091 141.152 144.336C140.396 143.581 139.972 142.557 139.971 141.489V116.11C139.972 115.042 140.396 114.018 141.152 113.263C141.907 112.508 142.931 112.083 143.999 112.082H235.172C236.24 112.083 237.264 112.508 238.019 113.263C238.774 114.018 239.199 115.042 239.2 116.11V141.489C239.199 142.557 238.774 143.581 238.019 144.336C237.264 145.091 236.24 145.516 235.172 145.517H164.799C164.576 145.518 164.355 145.564 164.15 145.654C163.946 145.744 163.762 145.876 163.611 146.04L150.294 160.569C150.181 160.692 150.044 160.791 149.892 160.859C149.739 160.927 149.574 160.962 149.407 160.962C149.255 160.962 149.106 160.933 148.965 160.878ZM143.999 112.618C143.073 112.619 142.186 112.988 141.531 113.642C140.876 114.297 140.508 115.184 140.507 116.11V141.489C140.508 142.415 140.876 143.302 141.531 143.957C142.186 144.611 143.073 144.98 143.999 144.981H146.583C147.153 144.981 147.699 145.208 148.102 145.611C148.504 146.013 148.731 146.559 148.732 147.129V159.752C148.732 159.887 148.773 160.02 148.849 160.131C148.925 160.243 149.034 160.329 149.16 160.378C149.286 160.427 149.424 160.437 149.556 160.406C149.687 160.375 149.807 160.306 149.898 160.206L163.216 145.677C163.417 145.458 163.662 145.283 163.934 145.163C164.207 145.043 164.501 144.981 164.799 144.981H235.172C236.098 144.98 236.985 144.611 237.639 143.957C238.294 143.302 238.662 142.415 238.663 141.489V116.11C238.662 115.184 238.294 114.297 237.639 113.642C236.985 112.988 236.098 112.619 235.172 112.618H143.999Z" fill="#3F3D56"/>
<path d="M120.547 168.737C116.809 171.132 112.477 172.437 108.038 172.508C103.598 172.578 99.2273 171.411 95.4141 169.137C96.0849 167.888 96.9349 166.745 97.937 165.742C99.4831 164.189 101.365 163.01 103.437 162.297C105.51 161.584 107.719 161.356 109.893 161.63C112.068 161.904 114.151 162.673 115.982 163.877C117.813 165.082 119.344 166.69 120.456 168.579C120.486 168.63 120.518 168.684 120.547 168.737Z" fill="#376AED"/>
<path d="M106.931 155.903C113.483 155.903 118.794 150.592 118.794 144.04C118.794 137.488 113.483 132.177 106.931 132.177C100.38 132.177 95.0689 137.488 95.0689 144.04C95.0689 150.592 100.38 155.903 106.931 155.903Z" fill="#2F2E41"/>
<path d="M115.758 152.407C118.097 148.129 116.525 142.764 112.246 140.425C107.968 138.086 102.603 139.658 100.264 143.937C97.9254 148.216 99.4978 153.581 103.776 155.92C108.055 158.259 113.419 156.686 115.758 152.407Z" fill="#FFB8B8"/>
<path d="M98.7341 142.619C100.752 144.009 103.146 144.749 105.597 144.74C104.723 145.346 103.727 145.755 102.68 145.94C105.938 146.638 109.305 146.657 112.57 145.995C113.296 145.879 113.997 145.638 114.641 145.284C114.962 145.105 115.242 144.86 115.462 144.565C115.682 144.271 115.838 143.933 115.919 143.575C116.136 142.335 115.17 141.209 114.166 140.45C112.629 139.305 110.857 138.517 108.978 138.141C107.099 137.766 105.16 137.813 103.301 138.278C102.088 138.592 100.872 139.122 100.084 140.097C99.2952 141.072 99.0617 142.574 99.8128 143.578L98.7341 142.619Z" fill="#2F2E41"/>
<path d="M107.657 172.779C101.848 172.777 96.2335 170.681 91.8446 166.874C87.4556 163.068 84.5862 157.806 83.7626 152.055C82.939 146.304 84.2166 140.448 87.3609 135.563C90.5051 130.677 95.3054 127.09 100.881 125.457C106.457 123.825 112.434 124.258 117.716 126.676C122.999 129.095 127.232 133.337 129.64 138.624C132.047 143.912 132.468 149.89 130.825 155.463C129.181 161.035 125.584 165.828 120.692 168.963C116.803 171.457 112.278 172.782 107.657 172.779ZM107.657 125.006C102.986 125.006 98.4189 126.391 94.5345 128.986C90.65 131.581 87.6223 135.27 85.8344 139.587C84.0464 143.903 83.5785 148.652 84.4898 153.234C85.401 157.816 87.6506 162.025 90.9539 165.329C94.2572 168.632 98.466 170.882 103.048 171.793C107.63 172.704 112.379 172.237 116.695 170.448C121.011 168.66 124.7 165.633 127.295 161.748C129.89 157.863 131.275 153.296 131.274 148.624C131.267 142.363 128.777 136.359 124.349 131.932C119.922 127.504 113.919 125.013 107.657 125.006Z" fill="#3F3D56"/>
<path d="M151.313 123.009C153.26 123.009 154.838 121.431 154.838 119.484C154.838 117.537 153.26 115.959 151.313 115.959C149.367 115.959 147.789 117.537 147.789 119.484C147.789 121.431 149.367 123.009 151.313 123.009Z" fill="#376AED"/>
<path d="M232.522 138.988H149.573C149.326 138.989 149.081 138.94 148.853 138.846C148.625 138.752 148.417 138.613 148.242 138.439C148.068 138.264 147.929 138.057 147.834 137.828C147.74 137.6 147.691 137.355 147.691 137.108C147.691 136.861 147.74 136.617 147.834 136.388C147.929 136.16 148.068 135.953 148.242 135.778C148.417 135.604 148.625 135.465 148.853 135.371C149.081 135.277 149.326 135.228 149.573 135.228H232.522C233.021 135.228 233.499 135.427 233.851 135.779C234.204 136.132 234.402 136.61 234.402 137.108C234.402 137.607 234.204 138.085 233.851 138.438C233.499 138.79 233.021 138.988 232.522 138.988Z" fill="#E6E6E6"/>
<path d="M205.499 130.999H149.573C149.326 130.999 149.081 130.95 148.853 130.856C148.625 130.762 148.417 130.623 148.242 130.449C148.068 130.274 147.929 130.067 147.834 129.839C147.74 129.61 147.691 129.366 147.691 129.119C147.691 128.872 147.74 128.627 147.834 128.399C147.929 128.17 148.068 127.963 148.242 127.788C148.417 127.614 148.625 127.475 148.853 127.381C149.081 127.287 149.326 127.238 149.573 127.239H205.499C205.997 127.239 206.475 127.438 206.827 127.79C207.179 128.143 207.377 128.62 207.377 129.119C207.377 129.617 207.179 130.095 206.827 130.447C206.475 130.8 205.997 130.998 205.499 130.999Z" fill="#E6E6E6"/>
<path d="M148.852 163.281C152.484 163.281 155.428 162.954 155.428 162.551C155.428 162.148 152.484 161.821 148.852 161.821C145.22 161.821 142.275 162.148 142.275 162.551C142.275 162.954 145.22 163.281 148.852 163.281Z" fill="#F2F2F2"/>
<path d="M90.0779 77.3974C93.7098 77.3974 96.6541 77.0706 96.6541 76.6675C96.6541 76.2644 93.7098 75.9376 90.0779 75.9376C86.4459 75.9376 83.5016 76.2644 83.5016 76.6675C83.5016 77.0706 86.4459 77.3974 90.0779 77.3974Z" fill="#F2F2F2"/>
</svg>
