<svg width="190" height="200" viewBox="0 0 190 200" fill="none" xmlns="http://www.w3.org/2000/svg">
<path d="M152.25 199.496H89.7352C80.3587 199.496 72.7303 191.859 72.7303 182.472V17.0241C72.7303 7.63703 80.3587 0 89.7352 0H152.25C161.627 0 169.255 7.63703 169.255 17.0241C170.419 83.4629 172.403 157.864 169.255 182.472C169.255 191.859 161.627 199.496 152.25 199.496Z" fill="#3F3D56"/>
<path d="M170.127 60.8572C169.73 60.8572 169.408 61.1802 169.408 61.5774V84.6239C169.408 85.0211 169.73 85.3441 170.127 85.3441C170.524 85.3441 170.846 85.0211 170.846 84.6239V61.5774C170.846 61.1802 170.524 60.8572 170.127 60.8572Z" fill="#3F3D56"/>
<path d="M167.637 17.0242V182.469C167.637 190.64 161.285 197.323 153.253 197.842H153.249C153.13 197.849 153.012 197.856 152.889 197.86C152.677 197.871 152.465 197.874 152.249 197.874C152.249 197.874 151.458 197.817 150.012 197.709C148.551 197.601 146.426 197.439 143.775 197.226C142.98 197.165 142.142 197.097 141.257 197.025C139.494 196.88 137.559 196.722 135.484 196.542C134.656 196.474 133.8 196.398 132.926 196.322C128.459 195.937 123.455 195.487 118.179 194.976C117.287 194.893 116.387 194.806 115.481 194.716C115.244 194.691 74.3491 184.399 74.3491 182.469V17.0242C74.3491 8.51505 81.2373 1.61911 89.7369 1.61911H98.9235C100.391 1.61911 101.571 2.76422 101.697 4.22984C101.708 4.32707 101.718 4.42429 101.736 4.52152C102.003 5.99435 103.351 7.02063 104.848 7.02063H137.138C138.634 7.02063 139.983 5.99435 140.25 4.52152C140.268 4.42429 140.278 4.32708 140.289 4.22984C140.415 2.76423 141.595 1.61911 143.062 1.61911H152.249C160.749 1.61911 167.637 8.51505 167.637 17.0242Z" fill="white"/>
<path d="M72.3707 43.5723C71.9739 43.5723 71.6513 43.8953 71.6513 44.2925V50.0541C71.6513 50.4513 71.9739 50.7743 72.3707 50.7743C72.7674 50.7743 73.0901 50.4513 73.0901 50.0541V44.2925C73.0901 43.8953 72.7674 43.5723 72.3707 43.5723Z" fill="#3F3D56"/>
<path d="M72.3707 60.8572C71.9739 60.8572 71.6513 61.1802 71.6513 61.5774V72.7405C71.6513 73.1377 71.9739 73.4607 72.3707 73.4607C72.7674 73.4607 73.0901 73.1377 73.0901 72.7405V61.5774C73.0901 61.1802 72.7674 60.8572 72.3707 60.8572Z" fill="#3F3D56"/>
<path d="M72.3707 76.7016C71.9739 76.7016 71.6513 77.0246 71.6513 77.4218V88.585C71.6513 88.9822 71.9739 89.3052 72.3707 89.3052C72.7674 89.3052 73.0901 88.9822 73.0901 88.585V77.4218C73.0901 77.0246 72.7674 76.7016 72.3707 76.7016Z" fill="#3F3D56"/>
<path d="M98.6873 4.14122H84.9012C84.8344 4.14122 84.7802 4.19544 84.7802 4.26233V5.82062C84.7802 5.88751 84.8344 5.94173 84.9012 5.94173H98.6873C98.7541 5.94173 98.8083 5.88751 98.8083 5.82062V4.26233C98.8083 4.19544 98.7541 4.14122 98.6873 4.14122Z" fill="#E6E6E6"/>
<path d="M145.336 5.94173C146.13 5.94173 146.774 5.29684 146.774 4.50133C146.774 3.70581 146.13 3.06092 145.336 3.06092C144.541 3.06092 143.897 3.70581 143.897 4.50133C143.897 5.29684 144.541 5.94173 145.336 5.94173Z" fill="#E6E6E6"/>
<path d="M149.292 5.94173C150.087 5.94173 150.731 5.29684 150.731 4.50133C150.731 3.70581 150.087 3.06092 149.292 3.06092C148.498 3.06092 147.853 3.70581 147.853 4.50133C147.853 5.29684 148.498 5.94173 149.292 5.94173Z" fill="#E6E6E6"/>
<path d="M153.249 5.94173C154.043 5.94173 154.688 5.29684 154.688 4.50133C154.688 3.70581 154.043 3.06092 153.249 3.06092C152.454 3.06092 151.81 3.70581 151.81 4.50133C151.81 5.29684 152.454 5.94173 153.249 5.94173Z" fill="#E6E6E6"/>
<path d="M73.7543 196.484L69.3697 196.484L67.2839 179.552L73.7552 179.553L73.7543 196.484Z" fill="#FFB6B6"/>
<path d="M58.7321 196.385C58.5956 196.615 58.5236 197.358 58.5236 197.625C58.5236 198.448 59.1898 199.115 60.0117 199.115H73.5903C74.151 199.115 74.6055 198.66 74.6055 198.099V197.533C74.6055 197.533 75.2773 195.832 73.8943 193.735C73.8943 193.735 72.1755 195.377 69.6071 192.806L68.8497 191.432L63.3673 195.446L60.3284 195.821C59.6636 195.903 59.0741 195.808 58.7321 196.385Z" fill="#2F2E41"/>
<path d="M49.5068 172.967L45.1222 172.953L43.0901 156.015L49.5613 156.036L49.5068 172.967Z" fill="#FFB6B6"/>
<path d="M34.485 172.82C34.3477 173.05 34.2733 173.792 34.2725 174.06C34.2699 174.883 34.934 175.552 35.7559 175.555L49.3344 175.598C49.8951 175.6 50.3511 175.146 50.3529 174.585L50.3547 174.019C50.3547 174.019 51.0318 172.32 49.6555 170.219C49.6555 170.219 47.9315 171.855 45.3713 169.276L44.6182 167.9L39.1231 171.896L36.0831 172.261C35.418 172.341 34.8288 172.244 34.485 172.82Z" fill="#2F2E41"/>
<path d="M67.3594 93.6958L61.9 94.0862C61.9 94.0862 43.4176 104.606 41.8578 106.949C40.298 109.291 38.1532 112.61 40.103 116.123C42.0528 119.637 40.5688 162.18 40.5688 162.18L49.886 160.07L55.8556 115.558L68.3343 113.801C68.3343 113.801 72.6239 123.066 71.064 130.731C69.5042 138.397 68.7243 143.081 68.7243 143.081L66.7745 188.368L74.3787 188.172L81.203 146.204L92.9017 113.021L77.6933 95.0622L67.3594 93.6958Z" fill="#2F2E41"/>
<path d="M94.2666 45.6767L82.9578 46.8479L81.7879 50.7519L70.869 56.6079L74.3787 81.203L71.6489 85.4974L72.8188 89.7918C72.8188 89.7918 69.6992 90.1822 70.0891 92.5246L63.0698 93.6958C63.0698 93.6958 72.3797 95.5986 74.3541 104.993C76.3285 114.387 92.7067 115.558 92.7067 115.558L105.575 75.347L106.745 51.5327L97.7762 49.1903L94.2666 45.6767Z" fill="#E6E6E6"/>
<path d="M88.3067 44.1953C93.1619 44.1953 97.0979 40.2549 97.0979 35.3941C97.0979 30.5334 93.1619 26.593 88.3067 26.593C83.4514 26.593 79.5154 30.5334 79.5154 35.3941C79.5154 40.2549 83.4514 44.1953 88.3067 44.1953Z" fill="#FFB6B6"/>
<path d="M83.7377 43.3343C83.7377 43.3343 75.9385 42.9439 76.7184 36.6975C74.788 30.0458 76.4967 25.7269 82.5678 24.2047C82.5678 24.2047 84.1277 23.8143 84.5176 23.8143C89.6467 23.8143 92.3168 25.3759 92.3168 25.3759C92.3168 25.3759 91.9268 23.8297 92.3168 24.2124C92.7068 24.5951 93.0967 25.3759 93.0967 25.3759C93.0967 25.3759 96.9963 27.3279 96.9963 31.2319C96.9963 35.1359 96.9963 33.5743 96.9963 33.5743C96.9963 33.5743 96.2164 33.5743 95.4365 31.2319C94.6566 28.8895 89.607 30.4511 89.607 30.4511L89.977 31.2319L88.8072 30.8415L87.6373 32.0127L86.8574 31.6223C86.8574 31.6223 83.7377 31.6223 84.1277 31.6223C84.5176 31.6223 84.2459 34.2755 84.2459 34.2755L81.3979 37.4783L84.5176 43.3343H83.7377Z" fill="#2F2E41"/>
<path d="M42.1858 89.93C39.9657 91.1431 38.791 93.2731 39.562 94.6875C40.3331 96.102 42.758 96.2652 44.9782 95.0521C45.95 94.5211 46.7215 93.8144 47.2172 93.0689L56.5603 87.8106L54.0021 83.4738L45.0632 89.1177C44.1688 89.1318 43.1577 89.399 42.1858 89.93Z" fill="#FFB6B6"/>
<path d="M73.6938 56.7901C73.6938 56.7901 70.0313 55.394 68.7694 57.0745C67.5075 58.7549 59.1714 79.1457 59.1714 79.1457L46.9407 85.5404L50.3801 91.5365L66.1295 86.2871L76.5206 67.2616L73.6938 56.7901Z" fill="#E6E6E6"/>
<path d="M189.188 123.756V165.138C189.188 168.798 186.215 171.775 182.559 171.775H80.3898C76.7344 171.775 73.7605 168.798 73.7605 165.138V123.756C73.7605 120.096 76.7344 117.119 80.3898 117.119H182.559C186.215 117.119 189.188 120.096 189.188 123.756Z" fill="white"/>
<path d="M189.188 123.756V165.138C189.188 168.798 186.215 171.775 182.559 171.775H80.3898C76.7344 171.775 73.7605 168.798 73.7605 165.138V123.756C73.7605 120.096 76.7344 117.119 80.3898 117.119H182.559C186.215 117.119 189.188 120.096 189.188 123.756ZM182.559 170.994C185.79 170.994 188.409 168.372 188.409 165.138V144.275C188.409 129.708 176.613 117.9 162.063 117.9H80.3898C77.1593 117.9 74.5405 120.522 74.5405 123.756V165.138C74.5405 168.372 77.1593 170.994 80.3898 170.994H182.559Z" fill="#3F3D56"/>
<path d="M119.624 142.121H106.279C105.943 142.121 105.669 142.395 105.669 142.731C105.669 143.068 105.943 143.342 106.279 143.342H119.624C119.96 143.342 120.234 143.068 120.234 142.731C120.234 142.395 119.96 142.121 119.624 142.121Z" fill="#376AED"/>
<path d="M139.902 142.121H126.557C126.221 142.121 125.947 142.395 125.947 142.731C125.947 143.068 126.221 143.342 126.557 143.342H139.902C140.238 143.342 140.512 143.068 140.512 142.731C140.512 142.395 140.238 142.121 139.902 142.121Z" fill="#376AED"/>
<path d="M119.624 148.799H106.279C105.943 148.799 105.669 149.073 105.669 149.41C105.669 149.746 105.943 150.02 106.279 150.02H119.624C119.96 150.02 120.234 149.746 120.234 149.41C120.234 149.073 119.96 148.799 119.624 148.799Z" fill="#376AED"/>
<path d="M139.902 148.799H126.557C126.221 148.799 125.947 149.073 125.947 149.41C125.947 149.746 126.221 150.02 126.557 150.02H139.902C140.238 150.02 140.512 149.746 140.512 149.41C140.512 149.073 140.238 148.799 139.902 148.799Z" fill="#376AED"/>
<path d="M160.79 149.41C160.79 149.073 160.516 148.799 160.18 148.799H146.835C146.499 148.799 146.225 149.073 146.225 149.41C146.225 149.746 146.499 150.02 146.835 150.02H160.18C160.516 150.02 160.79 149.746 160.79 149.41Z" fill="#376AED"/>
<path d="M111.825 136.788C112.161 136.788 112.435 136.514 112.435 136.177C112.435 135.841 112.161 135.567 111.825 135.567H98.48C98.1436 135.567 97.8698 135.841 97.8698 136.177C97.8698 136.514 98.1436 136.788 98.48 136.788H111.825Z" fill="#376AED"/>
<path d="M151.124 136.54H164.469C164.806 136.54 165.079 136.266 165.079 135.929C165.079 135.592 164.806 135.318 164.469 135.318H151.124C150.788 135.318 150.514 135.592 150.514 135.929C150.514 136.266 150.788 136.54 151.124 136.54Z" fill="#376AED"/>
<path d="M117.446 136.668H145.113C145.449 136.668 145.723 136.394 145.723 136.057C145.723 135.721 145.449 135.447 145.113 135.447H117.446C117.11 135.447 116.836 135.721 116.836 136.057C116.836 136.394 117.11 136.668 117.446 136.668Z" fill="#376AED"/>
<path d="M128.332 154.866H114.987C114.651 154.866 114.377 155.14 114.377 155.477C114.377 155.814 114.651 156.088 114.987 156.088H128.332C128.668 156.088 128.942 155.814 128.942 155.477C128.942 155.14 128.668 154.866 128.332 154.866Z" fill="#376AED"/>
<path d="M171.43 123.444V164.826C171.43 168.486 168.457 171.463 164.801 171.463H123.466C119.81 171.463 116.836 168.486 116.836 164.826V123.444C116.836 119.784 119.81 116.807 123.466 116.807H164.801C168.457 116.807 171.43 119.784 171.43 123.444Z" fill="white"/>
<path d="M171.43 123.444V164.826C171.43 168.486 168.457 171.463 164.801 171.463H123.466C119.81 171.463 116.836 168.486 116.836 164.826V123.444C116.836 119.784 119.81 116.807 123.466 116.807H164.801C168.457 116.807 171.43 119.784 171.43 123.444ZM162.237 170.682C166.884 170.682 170.651 166.911 170.651 162.259V143.963C170.651 129.396 158.855 117.588 144.305 117.588H123.466C120.235 117.588 117.616 120.21 117.616 123.444V159.052C117.616 165.475 122.817 170.682 129.233 170.682L162.237 170.682Z" fill="#3F3D56"/>
<path d="M149.636 133.708H136.291C135.955 133.708 135.681 133.434 135.681 133.097C135.681 132.76 135.955 132.487 136.291 132.487H149.636C149.972 132.487 150.246 132.76 150.246 133.097C150.246 133.434 149.972 133.708 149.636 133.708Z" fill="#376AED"/>
<path d="M149.636 146.733H136.291C135.955 146.733 135.681 146.459 135.681 146.122C135.681 145.786 135.955 145.512 136.291 145.512H149.636C149.972 145.512 150.246 145.786 150.246 146.122C150.246 146.459 149.972 146.733 149.636 146.733Z" fill="#376AED"/>
<path d="M143.007 164.692H129.662C129.325 164.692 129.052 164.418 129.052 164.081C129.052 163.744 129.325 163.47 129.662 163.47H143.007C143.343 163.47 143.617 163.744 143.617 164.081C143.617 164.418 143.343 164.692 143.007 164.692Z" fill="#376AED"/>
<path d="M156.797 140.225H129.13C128.794 140.225 128.52 139.951 128.52 139.614C128.52 139.277 128.794 139.003 129.13 139.003H156.797C157.133 139.003 157.407 139.277 157.407 139.614C157.407 139.951 157.133 140.225 156.797 140.225Z" fill="#376AED"/>
<path d="M163.653 100.513C163.653 87.6034 152.754 80.5018 140.305 77.1382C124.343 72.8259 112.653 81.5521 116.956 100.513C117.932 104.81 120.264 109.829 123.152 114.122H146.063C153.717 109.134 163.653 110.533 163.653 100.513Z" fill="#376AED"/>
<path d="M139.962 124.917C141.265 122.429 142.918 120.635 144.738 119.269H123.279C128.802 127.167 136.127 132.236 139.962 124.917Z" fill="#376AED"/>
<path d="M137.486 86.6928C138.863 86.6928 139.98 87.8109 139.98 89.1902V94.1848H134.991V89.1902C134.991 87.8109 136.108 86.6928 137.486 86.6928ZM141.227 94.1848V89.1901C141.227 87.1213 139.552 85.4442 137.486 85.4442C135.419 85.4442 133.744 87.1213 133.744 89.1901V94.1848C132.366 94.1848 131.249 95.3028 131.249 96.6821V102.925C131.249 104.305 132.366 105.423 133.744 105.423H141.227C142.605 105.423 143.722 104.305 143.722 102.925V96.6821C143.722 95.3028 142.605 94.1848 141.227 94.1848ZM133.744 95.4334H141.227C141.916 95.4334 142.475 95.9924 142.475 96.6821V102.925C142.475 103.615 141.916 104.174 141.227 104.174H133.744C133.055 104.174 132.497 103.615 132.497 102.925V96.6821C132.497 95.9924 133.055 95.4334 133.744 95.4334Z" fill="white"/>
<path d="M101.838 115.77C101.537 118.284 102.589 120.478 104.187 120.67C105.785 120.861 107.325 118.978 107.625 116.464C107.757 115.364 107.63 114.325 107.31 113.488L108.451 102.818L103.439 102.389L102.846 112.953C102.339 113.69 101.97 114.67 101.838 115.77Z" fill="#FFB6B6"/>
<path d="M103.041 52.1183C103.041 52.1183 108.5 50.5567 109.67 52.8991C110.84 55.2415 113.57 86.083 113.57 86.083L108.305 110.701L102.261 109.117L105.38 84.131L101.091 65.3919L103.041 52.1183Z" fill="#E6E6E6"/>
<path d="M22.8126 127.012C35.4117 127.012 45.6252 116.787 45.6252 104.174C45.6252 91.5607 35.4117 81.3356 22.8126 81.3356C10.2136 81.3356 0 91.5607 0 104.174C0 116.787 10.2136 127.012 22.8126 127.012Z" fill="#FFA934"/>
<path d="M22.8126 93.9498C24.4241 93.9498 25.7305 95.2577 25.7305 96.871V102.713H19.8947V96.871C19.8947 95.2577 21.2011 93.9498 22.8126 93.9498ZM27.1895 102.713V96.871C27.1895 94.451 25.2299 92.4892 22.8126 92.4892C20.3953 92.4892 18.4358 94.451 18.4358 96.871V102.713C16.8243 102.713 15.5179 104.021 15.5179 105.635V112.938C15.5179 114.551 16.8243 115.859 18.4358 115.859H27.1894C28.801 115.859 30.1073 114.551 30.1073 112.938V105.635C30.1073 104.021 28.801 102.713 27.1895 102.713ZM18.4358 104.174H27.1894C27.9952 104.174 28.6484 104.828 28.6484 105.635V112.938C28.6484 113.744 27.9952 114.398 27.1894 114.398H18.4358C17.63 114.398 16.9768 113.744 16.9768 112.938V105.635C16.9768 104.828 17.63 104.174 18.4358 104.174Z" fill="white"/>
</svg>
